# xmcd
#
# Track frame offsets: 
#        150
#        22103
#        43356
#        63482
#        82765
#        104030
#        124888
#        145274
#        163925
#        186313
#        204769
#        225975
#        245413
#        266274
#        282428
#
# Disc length: 4024 seconds
#
# Revision: 1
# Processed by: cddbd v1.5.2PL0 Copyright (c) Steve Scherf et al.
# Submitted via: ExactAudioCopyFreeDBPlugin 1.0
#
DISCID=d90fb60f
DTITLE=太平洋影音 - DTS ES 正品 测试极品V
DYEAR=2010
DGENRE=Acid
TTITLE0=铃儿响叮当
TTITLE1=请到天涯海角来
TTITLE2=在希望的田野上
TTITLE3=咱们的领袖毛泽东
TTITLE4=嘎达梅林
TTITLE5=爸爸的祝福
TTITLE6=鸽子
TTITLE7=我的太阳
TTITLE8=我从草原来
TTITLE9=亲密爱人
TTITLE10=选择
TTITLE11=女人花
TTITLE12=绿叶对根的情意
TTITLE13=年轻的朋友来相会
TTITLE14=祖国，慈祥的母亲
EXTD=
EXTT0=
EXTT1=
EXTT2=
EXTT3=
EXTT4=
EXTT5=
EXTT6=
EXTT7=
EXTT8=
EXTT9=
EXTT10=
EXTT11=
EXTT12=
EXTT13=
EXTT14=
PLAYORDER=
